<?xml version="1.0" standalone="no"?><!DOCTYPE svg PUBLIC "-//W3C//DTD SVG 1.1//EN" "http://www.w3.org/Graphics/SVG/1.1/DTD/svg11.dtd"><svg t="1592796370659" class="icon" viewBox="0 0 1024 1024" version="1.1" xmlns="http://www.w3.org/2000/svg" p-id="2452" width="32" height="32" xmlns:xlink="http://www.w3.org/1999/xlink"><defs><style type="text/css"></style></defs><path d="M512 992c-264.676 0-480-215.324-480-480 0-264.654 215.324-480 480-480s480 215.346 480 480c0 264.676-215.324 480-480 480zM512 73.738c-241.658 0-438.262 196.604-438.262 438.262s196.604 438.284 438.262 438.284 438.262-196.626 438.262-438.284-196.604-438.262-438.262-438.262zM463.826 670.204c-4.233 0-8.509-1.244-12.284-3.796l-179.149-122.226c-9.971-6.807-12.524-20.378-5.738-30.327 6.807-9.949 20.378-12.524 30.327-5.738l179.149 122.226c9.971 6.807 12.524 20.378 5.738 30.327-4.233 6.218-11.084 9.534-18.044 9.534zM463.847 670.204c-5.564 0-11.149-2.116-15.404-6.371-8.531-8.509-8.553-22.298-0.044-30.851l275.454-276.393c8.487-8.531 22.276-8.574 30.851-0.044 8.531 8.509 8.574 22.32 0.044 30.873l-275.454 276.371c-4.254 4.276-9.862 6.414-15.447 6.414z" p-id="2453"></path></svg>