<?xml version="1.0" standalone="no"?><!DOCTYPE svg PUBLIC "-//W3C//DTD SVG 1.1//EN" "http://www.w3.org/Graphics/SVG/1.1/DTD/svg11.dtd"><svg t="1589357699890" class="icon" viewBox="0 0 1024 1024" version="1.1" xmlns="http://www.w3.org/2000/svg" p-id="2398" width="128" height="128" xmlns:xlink="http://www.w3.org/1999/xlink"><defs><style type="text/css"></style></defs><path d="M567.342545 101.888c-67.537455 0-134.516364 16.802909-193.768727 48.546909a34.955636 34.955636 0 0 0 33.047273 61.579636 341.178182 341.178182 0 0 1 160.768-40.261818c187.624727 0 340.293818 152.622545 340.293818 340.293818s-152.622545 340.293818-340.293818 340.293819c-163.095273 0-299.613091-115.386182-332.567273-268.706909l46.545455 46.545454a34.816 34.816 0 0 0 49.338182 0 34.909091 34.909091 0 0 0 0-49.384727l-112.314182-112.314182a35.979636 35.979636 0 0 0-49.384728 0L56.785455 580.747636a34.909091 34.909091 0 1 0 49.384727 49.384728l56.273454-56.32c29.975273 196.840727 199.866182 348.299636 404.945455 348.299636 226.117818 0 410.065455-183.994182 410.065454-410.112 0-226.117818-183.947636-410.112-410.112-410.112z" p-id="2399"></path></svg>