<?xml version="1.0" standalone="no"?><!DOCTYPE svg PUBLIC "-//W3C//DTD SVG 1.1//EN" "http://www.w3.org/Graphics/SVG/1.1/DTD/svg11.dtd"><svg t="1589797823449" class="icon" viewBox="0 0 1024 1024" version="1.1" xmlns="http://www.w3.org/2000/svg" p-id="1988" width="128" height="128" xmlns:xlink="http://www.w3.org/1999/xlink"><defs><style type="text/css"></style></defs><path d="M569.52 967.36h-115l-29.11-70.62a389.54 389.54 0 0 1-124.3-51.54l-69 27.77L151 791.91l27.77-69a389.54 389.54 0 0 1-51.54-124.3l-70.59-29.09v-115l70.62-29.11a389.54 389.54 0 0 1 51.54-124.3l-27.77-69L232.09 151l69 27.77a389.54 389.54 0 0 1 124.3-51.54l29.11-70.62h115l29.11 70.62a389.54 389.54 0 0 1 124.3 51.54l69-27.77L873 232.09l-27.77 69a389.54 389.54 0 0 1 51.54 124.3l70.62 29.11v115l-70.62 29.11a389.54 389.54 0 0 1-51.54 124.3l27.77 69L791.91 873l-69-27.77a389.54 389.54 0 0 1-124.3 51.54z m-82.91-48h50.78l26.67-64.71 12.77-2.42a342.51 342.51 0 0 0 129.9-53.82l10.59-7.22 63.08 25.4 36.19-36.19-25.4-63.08 7.22-10.59a342.51 342.51 0 0 0 53.82-129.9l2.42-12.77 64.71-26.67v-50.78l-64.71-26.67-2.42-12.77a342.51 342.51 0 0 0-53.82-129.9l-7.22-10.59 25.4-63.08-36.19-36.19-63.08 25.4-10.59-7.22a342.51 342.51 0 0 0-129.9-53.82l-12.77-2.42-26.67-64.71h-50.78l-26.67 64.71-12.77 2.42a342.51 342.51 0 0 0-129.9 53.82l-10.59 7.22-63.08-25.4-36.19 36.19 25.4 63.08-7.22 10.59a342.51 342.51 0 0 0-53.82 129.9l-2.42 12.77-64.71 26.67v50.78l64.71 26.67 2.42 12.77a342.51 342.51 0 0 0 53.82 129.9l7.22 10.59-25.4 63.08 36.19 36.19 63.08-25.4 10.59 7.22a342.51 342.51 0 0 0 129.9 53.82l12.77 2.42z" p-id="1989" fill="#ffffff"></path><path d="M512 725.59c-117.78 0-213.59-95.81-213.59-213.59A213.59 213.59 0 1 1 512 725.59z m0-379.18c-91.31 0-165.59 74.28-165.59 165.59S420.69 677.59 512 677.59 677.59 603.31 677.59 512 603.31 346.41 512 346.41z" p-id="1990"></path></svg>